# xmcd
#
# Track frame offsets:
#	150
#	23285
#	44225
#	65712
#	85332
#	110785
#	129910
#	146715
#	171665
#	195895
#	215870
#	238195
#
# Disc length: 3443 seconds
#
# Revision: 25755833
# Processed by: cddbd v1.5.2PL0 Copyright (c) Steve Scherf et al.
# Submitted via: EZCDAudioConverter 8.0.2.1
#
DISCID=b90d710c
DTITLE=Thanh Tuyền, Thanh Phong, Giao Linh - Tâm Sự Nàng Buram
DYEAR=2001
DGENRE=
TTITLE0=Thanh Tuyền - Ba tháng tạ từ
TTITLE1=Giao Linh - Người tình không đến
TTITLE2=Thanh Phong - Đập vỡ cây đàn
TTITLE3=Thanh Tuyền, Thanh Phong - Đường tình đôi ngã
TTITLE4=Giao Linh - Nước cuốn hoa trôi
TTITLE5=Thanh Phong, Mai Ngọc Khánh - Lối về xóm nhỏ
TTITLE6=Giao Linh - Tâm sự nàng Buram
TTITLE7=Thanh Tuyền, Thanh Phong - Căn nhà màu tím
TTITLE8=Thanh Phong - Gió cuốn chiều hôm
TTITLE9=Thanh Tuyền - Người lữ khách
TTITLE10=Thanh Tuyền, Thanh Phong - Hai năm rồi
TTITLE11=Giao Linh - Đêm nhớ người tình
EXTD=
EXTT0=
EXTT1=
EXTT2=
EXTT3=
EXTT4=
EXTT5=
EXTT6=
EXTT7=
EXTT8=
EXTT9=
EXTT10=
EXTT11=
PLAYORDER=
